<mxfile host="app.diagrams.net" modified="2023-05-23T12:56:21.663Z" agent="Mozilla/5.0 (Windows NT 10.0; Win64; x64) AppleWebKit/537.36 (KHTML, like Gecko) Chrome/113.0.0.0 Safari/537.36" version="21.3.3" etag="RvZJS-G-2_2Vn8h3Aj7t" type="github">
  <diagram name="페이지-1" id="yt4jH-Tm1my_lyVD9IDW">
    <mxGraphModel>
      <root>
        <mxCell id="0" />
        <mxCell id="1" parent="0" />
      </root>
    </mxGraphModel>
  </diagram>
</mxfile>
